<?xml version="1.0" encoding="utf-8"?>
<!-- Generator: Adobe Illustrator 26.0.0, SVG Export Plug-In . SVG Version: 6.00 Build 0)  -->
<svg version="1.1" id="Layer_1" xmlns="http://www.w3.org/2000/svg" xmlns:xlink="http://www.w3.org/1999/xlink" x="0px" y="0px"
	 viewBox="0 0 100 100" style="enable-background:new 0 0 100 100;" xml:space="preserve">
<style type="text/css">
	.st0{fill:#7E90FE;}
</style>
<path class="st0" d="M49.87,0C22.33,0,0,22.33,0,49.87s22.33,49.87,49.87,49.87s49.87-22.33,49.87-49.87S77.41,0,49.87,0z
	 M21.14,54.81c0.6,1.48,1.44,2.77,2.52,3.86c1.09,1.09,2.37,1.92,3.86,2.5c1.48,0.58,3.11,0.87,4.89,0.87
	c1.88,0,3.62-0.37,5.21-1.11c1.59-0.74,3.04-1.87,4.34-3.39l5.65,5.21c-1.81,2.21-4.05,3.89-6.71,5.05s-5.66,1.74-8.99,1.74
	c-2.93,0-5.66-0.48-8.17-1.44c-2.52-0.96-4.7-2.33-6.54-4.1c-1.85-1.77-3.29-3.86-4.32-6.24c-1.03-2.39-1.55-5.01-1.55-7.87
	c0-2.86,0.52-5.48,1.55-7.87s2.48-4.47,4.34-6.24c1.86-1.77,4.05-3.14,6.54-4.1c2.5-0.96,5.23-1.44,8.2-1.44
	c3.29,0,6.27,0.57,8.93,1.71c2.66,1.14,4.9,2.82,6.71,5.02l-5.65,5.21c-1.3-1.48-2.75-2.6-4.34-3.34c-1.59-0.74-3.33-1.11-5.21-1.11
	c-1.77,0-3.4,0.29-4.89,0.87c-1.48,0.58-2.77,1.41-3.86,2.5c-1.09,1.09-1.93,2.37-2.52,3.86c-0.6,1.48-0.9,3.13-0.9,4.94
	C20.25,51.68,20.55,53.33,21.14,54.81z M79.6,68.87V53.29H62.33v15.58h-8.8V30.86h8.8v14.99H79.6V30.86h8.8v38.01H79.6z"/>
</svg>
